<svg xmlns="http://www.w3.org/2000/svg" viewBox="0 0 1200 630" width="1200" height="630">
  <defs>
    <linearGradient id="bg" x1="0" y1="0" x2="0" y2="1">
      <stop offset="0%" stop-color="#0E0C18"></stop>
      <stop offset="50%" stop-color="#070711"></stop>
      <stop offset="100%" stop-color="#03030A"></stop>
    </linearGradient>
    <radialGradient id="warmGlow" cx="50%" cy="20%" r="60%">
      <stop offset="0%" stop-color="#C9A86A" stop-opacity="0.18"></stop>
      <stop offset="100%" stop-color="#C9A86A" stop-opacity="0"></stop>
    </radialGradient>
    <radialGradient id="sigilGlow" cx="50%" cy="50%" r="50%">
      <stop offset="0%" stop-color="#E8D29E" stop-opacity="0.6"></stop>
      <stop offset="100%" stop-color="#E8D29E" stop-opacity="0"></stop>
    </radialGradient>
  </defs>

  <rect width="1200" height="630" fill="url(#bg)"></rect>
  <rect width="1200" height="630" fill="url(#warmGlow)"></rect>

  
  <g fill="#E8D29E">
    <circle cx="80" cy="80" r="1.4" opacity="0.7"></circle>
    <circle cx="200" cy="120" r="0.9" opacity="0.6"></circle>
    <circle cx="340" cy="60" r="1.1" opacity="0.7"></circle>
    <circle cx="500" cy="100" r="0.7" opacity="0.5"></circle>
    <circle cx="950" cy="80" r="1.2" opacity="0.7"></circle>
    <circle cx="1100" cy="140" r="0.9" opacity="0.6"></circle>
    <circle cx="1140" cy="60" r="1.4" opacity="0.8"></circle>
    <circle cx="60" cy="280" r="0.8" opacity="0.5"></circle>
    <circle cx="1100" cy="340" r="1.0" opacity="0.6"></circle>
    <circle cx="1140" cy="450" r="0.7" opacity="0.5"></circle>
    <circle cx="80" cy="500" r="0.9" opacity="0.5"></circle>
    <circle cx="140" cy="560" r="1.2" opacity="0.7"></circle>
    <circle cx="900" cy="540" r="0.8" opacity="0.5"></circle>
    <circle cx="1080" cy="560" r="0.7" opacity="0.5"></circle>
  </g>

  
  <g transform="translate(940 315)" opacity="0.9">
    <circle r="170" fill="url(#sigilGlow)"></circle>
    <circle r="140" fill="none" stroke="#C9A86A" stroke-width="0.6" opacity="0.5"></circle>
    <circle r="110" fill="none" stroke="#C9A86A" stroke-width="0.4" opacity="0.35"></circle>
    <circle r="78" fill="none" stroke="#C9A86A" stroke-width="0.3" opacity="0.3"></circle>
    
    <path d="M 0 -60 L 8 -8 L 60 0 L 8 8 L 0 60 L -8 8 L -60 0 L -8 -8 Z" fill="#E8D29E" stroke="#C9A86A" stroke-width="0.6"></path>
    <path d="M 0 -40 L 5 -5 L 40 0 L 5 5 L 0 40 L -5 5 L -40 0 L -5 -5 Z" fill="#C9A86A"></path>
    
    <g font-family="Forum, serif" font-size="20" fill="#C9A86A" text-anchor="middle" dominant-baseline="central">
      <text x="140" y="0">♈</text>
      <text x="0" y="-140">♋</text>
      <text x="-140" y="0">♎</text>
      <text x="0" y="140">♑</text>
    </g>
  </g>

  
  <g transform="translate(120 130)" stroke="#C9A86A" fill="none">
    <line x1="0" y1="0" x2="50" y2="0" stroke-width="0.6"></line>
    <text x="65" y="5" fill="#C9A86A" font-family="Forum, serif" font-size="11" letter-spacing="4" text-anchor="start">ASTROGUIDE · 2026</text>
  </g>

  
  <text x="120" y="280" fill="#E8D29E" font-family="Yeseva One, serif" font-size="76" letter-spacing="-1">Your chart,</text>
  <text x="120" y="360" fill="#E8D29E" font-family="Yeseva One, serif" font-size="76" letter-spacing="-1">written for you.</text>

  
  <text x="120" y="430" fill="#C9A86A" font-family="Cormorant Garamond, serif" font-style="italic" font-size="26">Real astronomical positions.</text>
  <text x="120" y="464" fill="#C9A86A" font-family="Cormorant Garamond, serif" font-style="italic" font-size="26">Honest prose. Entertainment,</text>
  <text x="120" y="498" fill="#C9A86A" font-family="Cormorant Garamond, serif" font-style="italic" font-size="26">not prophecy.</text>

  
  <line x1="120" y1="560" x2="160" y2="560" stroke="#C9A86A" stroke-width="0.8"></line>
  <text x="175" y="565" fill="#8C7140" font-family="Forum, serif" font-size="11" letter-spacing="4">COMING MAY 2026 · ANDROID</text>

  
  <g stroke="#C9A86A" stroke-opacity="0.5" stroke-width="0.8" fill="none">
    <path d="M 36 36 L 36 64 M 36 36 L 64 36"></path>
    <path d="M 1164 36 L 1164 64 M 1164 36 L 1136 36"></path>
    <path d="M 36 594 L 36 566 M 36 594 L 64 594"></path>
    <path d="M 1164 594 L 1164 566 M 1164 594 L 1136 594"></path>
  </g>
</svg>