<svg xmlns="http://www.w3.org/2000/svg" viewBox="0 0 600 1000" width="600" height="1000">
<defs><linearGradient id="bg" x1="0" y1="0" x2="0" y2="1"><stop offset="0%" stop-color="#1a1424"></stop><stop offset="100%" stop-color="#0a0814"></stop></linearGradient><radialGradient id="gl" cx="50%" cy="40%" r="60%"><stop offset="0%" stop-color="#E8D29E" stop-opacity="0.18"></stop><stop offset="100%" stop-color="#E8D29E" stop-opacity="0"></stop></radialGradient><clipPath id="ac"><rect x="59" y="110" width="482" height="760" rx="6"></rect></clipPath></defs>
<rect width="600" height="1000" fill="url(#bg)"></rect><rect width="600" height="1000" fill="url(#gl)"></rect><circle cx="252" cy="91" r="0.9" fill="#E8D29E" opacity="0.58"></circle><circle cx="481" cy="82" r="0.9" fill="#E8D29E" opacity="0.43"></circle><circle cx="122" cy="82" r="0.9" fill="#E8D29E" opacity="0.56"></circle><circle cx="150" cy="73" r="1.6" fill="#E8D29E" opacity="0.73"></circle><circle cx="521" cy="66" r="0.9" fill="#E8D29E" opacity="0.49"></circle><circle cx="286" cy="98" r="1.6" fill="#E8D29E" opacity="0.36"></circle><circle cx="530" cy="86" r="0.9" fill="#E8D29E" opacity="0.68"></circle><circle cx="154" cy="74" r="0.9" fill="#E8D29E" opacity="0.48"></circle><circle cx="487" cy="52" r="0.9" fill="#E8D29E" opacity="0.53"></circle><circle cx="224" cy="50" r="0.9" fill="#E8D29E" opacity="0.79"></circle><circle cx="213" cy="86" r="0.9" fill="#E8D29E" opacity="0.73"></circle><circle cx="58" cy="104" r="1.6" fill="#E8D29E" opacity="0.40"></circle><circle cx="67" cy="65" r="0.9" fill="#E8D29E" opacity="0.38"></circle><circle cx="531" cy="83" r="0.9" fill="#E8D29E" opacity="0.57"></circle><circle cx="333" cy="54" r="0.9" fill="#E8D29E" opacity="0.31"></circle><circle cx="391" cy="52" r="0.9" fill="#E8D29E" opacity="0.78"></circle><circle cx="442" cy="104" r="0.9" fill="#E8D29E" opacity="0.34"></circle><circle cx="145" cy="61" r="0.9" fill="#E8D29E" opacity="0.59"></circle><circle cx="530" cy="50" r="0.9" fill="#E8D29E" opacity="0.33"></circle><circle cx="278" cy="70" r="0.9" fill="#E8D29E" opacity="0.37"></circle><circle cx="327" cy="106" r="0.9" fill="#E8D29E" opacity="0.57"></circle><circle cx="318" cy="98" r="0.9" fill="#E8D29E" opacity="0.37"></circle><circle cx="374" cy="80" r="1.6" fill="#E8D29E" opacity="0.49"></circle><circle cx="213" cy="109" r="0.9" fill="#E8D29E" opacity="0.59"></circle>
<rect x="22" y="22" width="556" height="956" fill="none" stroke="#C9A86A" stroke-width="1.4" rx="14"></rect><rect x="34" y="34" width="532" height="932" fill="none" stroke="#C9A86A" stroke-opacity="0.35" stroke-width="0.6" rx="10"></rect>
<g stroke="#C9A86A" stroke-opacity="0.7" stroke-width="0.9" fill="none"><path d="M 50 50 L 50 78 M 50 50 L 78 50 M 50 62 L 62 62 M 62 50 L 62 62"></path><path d="M 550 50 L 550 78 M 550 50 L 522 50 M 550 62 L 538 62 M 538 50 L 538 62"></path><path d="M 50 950 L 50 922 M 50 950 L 78 950 M 50 938 L 62 938 M 62 950 L 62 938"></path><path d="M 550 950 L 550 922 M 550 950 L 522 950 M 550 938 L 538 938 M 538 950 L 538 938"></path></g>
<text x="300" y="86" fill="#E8D29E" font-family="&#39;Yeseva One&#39;,&#39;Forum&#39;,serif" font-size="22" letter-spacing="6" text-anchor="middle">VI</text>
<line x1="240" y1="100" x2="282" y2="100" stroke="#C9A86A" stroke-opacity="0.5"></line><line x1="318" y1="100" x2="360" y2="100" stroke="#C9A86A" stroke-opacity="0.5"></line><circle cx="300" cy="100" r="2" fill="#C9A86A"></circle>
<g clip-path="url(#ac)"><image x="78.1021897810219" y="110" width="443.7956204379562" height="760" href="06.png" preserveAspectRatio="xMidYMid slice"></image></g>
<rect x="59" y="110" width="482" height="760" fill="none" stroke="#C9A86A" stroke-width="1.2"></rect>
<line x1="190" y1="900" x2="284" y2="900" stroke="#C9A86A" stroke-opacity="0.5"></line><line x1="316" y1="900" x2="410" y2="900" stroke="#C9A86A" stroke-opacity="0.5"></line>
<text x="300" y="905" fill="#C9A86A" font-family="&#39;Forum&#39;,serif" font-size="11" letter-spacing="3" text-anchor="middle">◆</text>
<text x="300" y="940" fill="#E8D29E" font-family="&#39;Forum&#39;,&#39;Yeseva One&#39;,serif" font-size="30" letter-spacing="6" text-anchor="middle">ВЛЮБЛЁННЫЕ</text>
<text x="300" y="965" fill="#8C7140" font-family="&#39;Forum&#39;,serif" font-size="10" letter-spacing="5" text-anchor="middle">ASTROGUIDE · ARCANA</text>
</svg>