<svg xmlns="http://www.w3.org/2000/svg" viewBox="0 0 600 1000" width="600" height="1000">
<defs><linearGradient id="bg" x1="0" y1="0" x2="0" y2="1"><stop offset="0%" stop-color="#1a1424"></stop><stop offset="100%" stop-color="#0a0814"></stop></linearGradient><radialGradient id="gl" cx="50%" cy="40%" r="60%"><stop offset="0%" stop-color="#E8D29E" stop-opacity="0.18"></stop><stop offset="100%" stop-color="#E8D29E" stop-opacity="0"></stop></radialGradient><clipPath id="ac"><rect x="59" y="110" width="482" height="760" rx="6"></rect></clipPath></defs>
<rect width="600" height="1000" fill="url(#bg)"></rect><rect width="600" height="1000" fill="url(#gl)"></rect><circle cx="170" cy="64" r="1.6" fill="#E8D29E" opacity="0.34"></circle><circle cx="417" cy="102" r="0.9" fill="#E8D29E" opacity="0.48"></circle><circle cx="56" cy="60" r="0.9" fill="#E8D29E" opacity="0.72"></circle><circle cx="175" cy="92" r="0.9" fill="#E8D29E" opacity="0.42"></circle><circle cx="175" cy="65" r="0.9" fill="#E8D29E" opacity="0.60"></circle><circle cx="382" cy="89" r="1.6" fill="#E8D29E" opacity="0.52"></circle><circle cx="495" cy="71" r="0.9" fill="#E8D29E" opacity="0.66"></circle><circle cx="358" cy="92" r="0.9" fill="#E8D29E" opacity="0.47"></circle><circle cx="78" cy="95" r="0.9" fill="#E8D29E" opacity="0.51"></circle><circle cx="462" cy="102" r="0.9" fill="#E8D29E" opacity="0.37"></circle><circle cx="301" cy="104" r="1.6" fill="#E8D29E" opacity="0.44"></circle><circle cx="478" cy="60" r="0.9" fill="#E8D29E" opacity="0.55"></circle><circle cx="412" cy="103" r="0.9" fill="#E8D29E" opacity="0.40"></circle><circle cx="337" cy="80" r="0.9" fill="#E8D29E" opacity="0.33"></circle><circle cx="415" cy="82" r="0.9" fill="#E8D29E" opacity="0.45"></circle><circle cx="176" cy="56" r="0.9" fill="#E8D29E" opacity="0.57"></circle><circle cx="299" cy="61" r="0.9" fill="#E8D29E" opacity="0.48"></circle><circle cx="222" cy="82" r="1.6" fill="#E8D29E" opacity="0.56"></circle><circle cx="88" cy="59" r="1.6" fill="#E8D29E" opacity="0.73"></circle><circle cx="520" cy="86" r="0.9" fill="#E8D29E" opacity="0.73"></circle><circle cx="233" cy="100" r="0.9" fill="#E8D29E" opacity="0.71"></circle><circle cx="482" cy="94" r="0.9" fill="#E8D29E" opacity="0.70"></circle><circle cx="333" cy="76" r="1.6" fill="#E8D29E" opacity="0.40"></circle><circle cx="281" cy="55" r="1.6" fill="#E8D29E" opacity="0.72"></circle>
<rect x="22" y="22" width="556" height="956" fill="none" stroke="#C9A86A" stroke-width="1.4" rx="14"></rect><rect x="34" y="34" width="532" height="932" fill="none" stroke="#C9A86A" stroke-opacity="0.35" stroke-width="0.6" rx="10"></rect>
<g stroke="#C9A86A" stroke-opacity="0.7" stroke-width="0.9" fill="none"><path d="M 50 50 L 50 78 M 50 50 L 78 50 M 50 62 L 62 62 M 62 50 L 62 62"></path><path d="M 550 50 L 550 78 M 550 50 L 522 50 M 550 62 L 538 62 M 538 50 L 538 62"></path><path d="M 50 950 L 50 922 M 50 950 L 78 950 M 50 938 L 62 938 M 62 950 L 62 938"></path><path d="M 550 950 L 550 922 M 550 950 L 522 950 M 550 938 L 538 938 M 538 950 L 538 938"></path></g>
<text x="300" y="86" fill="#E8D29E" font-family="&#39;Yeseva One&#39;,&#39;Forum&#39;,serif" font-size="22" letter-spacing="6" text-anchor="middle">IX</text>
<line x1="240" y1="100" x2="282" y2="100" stroke="#C9A86A" stroke-opacity="0.5"></line><line x1="318" y1="100" x2="360" y2="100" stroke="#C9A86A" stroke-opacity="0.5"></line><circle cx="300" cy="100" r="2" fill="#C9A86A"></circle>
<g clip-path="url(#ac)"><image x="78.1021897810219" y="110" width="443.7956204379562" height="760" href="09.png" preserveAspectRatio="xMidYMid slice"></image></g>
<rect x="59" y="110" width="482" height="760" fill="none" stroke="#C9A86A" stroke-width="1.2"></rect>
<line x1="190" y1="900" x2="284" y2="900" stroke="#C9A86A" stroke-opacity="0.5"></line><line x1="316" y1="900" x2="410" y2="900" stroke="#C9A86A" stroke-opacity="0.5"></line>
<text x="300" y="905" fill="#C9A86A" font-family="&#39;Forum&#39;,serif" font-size="11" letter-spacing="3" text-anchor="middle">◆</text>
<text x="300" y="940" fill="#E8D29E" font-family="&#39;Forum&#39;,&#39;Yeseva One&#39;,serif" font-size="30" letter-spacing="6" text-anchor="middle">ОТШЕЛЬНИК</text>
<text x="300" y="965" fill="#8C7140" font-family="&#39;Forum&#39;,serif" font-size="10" letter-spacing="5" text-anchor="middle">ASTROGUIDE · ARCANA</text>
</svg>